<svg height="50" viewBox="0 0 24 24" width="50" xmlns="http://www.w3.org/2000/svg"><path d="M21.25.75H2.75c-1.105 0-2 .895-2 2v18.5c0 1.105.895 2 2 2h18.5c1.105 0 2-.895 2-2V2.75c0-1.105-.895-2-2-2z" fill="#fe7e11"/><path d="M17.25 11.25L12 5.75l-5.25 5.5h3.5v6.5c0 .28.22.5.5.5h2.5c.28 0 .5-.22.5-.5v-6.5z" fill="#d1d1d1"/><path d="M21.25 24H2.75C1.233 24 0 22.767 0 21.25V2.75C0 1.233 1.233 0 2.75 0h18.5C22.767 0 24 1.233 24 2.75v18.5c0 1.517-1.233 2.75-2.75 2.75zM2.75 1.5c-.689 0-1.25.561-1.25 1.25v18.5c0 .689.561 1.25 1.25 1.25h18.5c.689 0 1.25-.561 1.25-1.25V2.75c0-.689-.561-1.25-1.25-1.25z" fill="#27262b"/><path d="M13.25 19h-2.5c-.689 0-1.25-.561-1.25-1.25V12H6.75c-.3 0-.571-.179-.689-.455s-.061-.596.147-.813l5.25-5.5c.283-.296.802-.296 1.085 0l5.25 5.5c.208.217.265.537.147.813s-.39.455-.69.455H14.5v5.75c0 .689-.561 1.25-1.25 1.25zM11 17.5h2v-6.25c0-.414.336-.75.75-.75h1.747L12 6.836 8.503 10.5h1.747c.414 0 .75.336.75.75z" fill="#27262b"/></svg>