<svg height="21" viewBox="0 0 60 60" width="21" xmlns="http://www.w3.org/2000/svg"><path d="M47.222 1.464a5.008 5.008 0 00-7.072 0L4.414 37.2l-.487.487a4.97 4.97 0 00-1.407 2.774L.045 56.489a3 3 0 003.45 3.468l16.043-2.477a4.967 4.967 0 002.773-1.406l.486-.487 35.738-35.738a5 5 0 000-7.071zm-7.841 3.6a3.263 3.263 0 013.658.576c.94.986 1.17 2.45.581 3.678L12.2 40.735a5.057 5.057 0 00-4.234-4.257zM49.3 14.94L17.859 46.376a5.047 5.047 0 00-4.236-4.235L45.06 10.705a3.159 3.159 0 014.24 4.235zM3.171 57.985a1 1 0 01-1.152-1.173l.681-4.433a6.746 6.746 0 013.126 1.792A6.751 6.751 0 017.621 57.3zM19.233 55.5l-9.624 1.49a8.73 8.73 0 00-2.366-4.233 8.729 8.729 0 00-4.233-2.366l1.49-9.624a2.981 2.981 0 01.84-1.667l.366-.365a3.26 3.26 0 013.655.576A3.323 3.323 0 019.9 43.09a1 1 0 001.346 1.356 3.326 3.326 0 013.78.531 3.322 3.322 0 01.534 3.774 1 1 0 001.348 1.355 3.324 3.324 0 013.778.531 3.262 3.262 0 01.574 3.663l-.364.364c-.45.45-1.033.743-1.663.836zm2.867-6.278a4.931 4.931 0 00-2.83-1.425L50.684 16.38a3.156 3.156 0 014.256 4.236L23.521 52.034a4.893 4.893 0 00-1.421-2.812zm35.1-30.876a4.9 4.9 0 00-1.421-2.8 5.022 5.022 0 00-4.21-1.446 5.075 5.075 0 00-5.66-5.66 5.026 5.026 0 00-1.448-4.212 4.882 4.882 0 00-2.8-1.419 3 3 0 014.154.072l11.306 11.311a2.983 2.983 0 01.073 4.154z" fill="#fe7e11" fill-rule="nonzero"/></svg>