<svg xmlns="http://www.w3.org/2000/svg" width="512" height="512"><path d="M472 56H40A32.03 32.03 0 008 88v336a32.036 32.036 0 0032 32h432a32.042 32.042 0 0032-32V88a32.036 32.036 0 00-32-32zM72 440H56V160h16zm192 0H88V160h8v48a8 8 0 0011.58 7.16l12.42-6.22 12.42 6.22A8 8 0 00144 208v-48h120zM112 195.06V152h16v43.06l-4.42-2.22a8.049 8.049 0 00-7.16 0zM488 424a16.021 16.021 0 01-16 16H280V152a8 8 0 00-8-8H144a8 8 0 00-8-8h-32a8 8 0 00-8 8H48a8 8 0 00-8 8v288a16.021 16.021 0 01-16-16V120h464zm0-320H24V88a16.021 16.021 0 0116-16h432a16.021 16.021 0 0116 16z"/><circle cx="48" cy="88" r="8"/><circle cx="72" cy="88" r="8"/><circle cx="96" cy="88" r="8"/><path d="M248 232H104a8 8 0 00-8 8v24a8 8 0 008 8h144a8 8 0 008-8v-24a8 8 0 00-8-8zm-8 24H112v-8h128zM248 288h-96a8 8 0 000 16h96a8 8 0 000-16zM248 312h-64a8 8 0 000 16h64a8 8 0 000-16zM208 336h-8a8 8 0 000 16h8a8 8 0 000-16zM248 336h-16a8 8 0 000 16h16a8 8 0 000-16zM448 216H320a8 8 0 00-8 8v64a8 8 0 008 8h128a8 8 0 008-8v-64a8 8 0 00-8-8zm-8 64H328v-48h112zM448 304H320a8 8 0 000 16h128a8 8 0 000-16zM448 328H320a8 8 0 000 16h128a8 8 0 000-16zM368 352h-48a8 8 0 000 16h48a8 8 0 000-16zM400 352h-8a8 8 0 000 16h8a8 8 0 000-16z"/></svg>