<svg xmlns="http://www.w3.org/2000/svg" viewBox="0 0 512 512"><path d="M255.9 23.1c-20 0-39.6 3.9-58.3 11.6-37.6 15.6-67 44.9-82.5 82.5-15.6 37.6-15.6 79.1 0 116.7 23.7 57.2 79 94.2 141 94.2 20 0 39.6-3.9 58.3-11.6 37.6-15.6 67-44.9 82.5-82.5 15.6-37.6 15.6-79.1 0-116.7-23.7-57.3-79-94.2-141-94.2zm87.3 193.8c3.2-14.4 5-28.6 5-41.4 0-13.8-1.4-27.7-4-41.3h32.9c9.2 26.9 9.2 55.8 0 82.7h-33.9zm-208.3 0c-9.2-26.9-9.2-55.8 0-82.7h32.9c-2.6 13.6-4 27.5-4 41.3 0 12.8 1.7 27 5 41.4h-33.9zm53.4-41.3c0-14.1 1.6-28.1 4.5-41.3h50.9V217h-50c-3.4-14-5.4-28.2-5.4-41.4zM268.2 54c17.5 7 33.4 28.1 43.7 55.8h-43.7V54zm-24.5 0v55.8H200C210.3 82.1 226.3 61 243.7 54zm0 187.4v55.4c-16.6-7.5-31.8-29.3-42.1-55.4h42.1zm24.5 55.5v-55.4h42.1c-10.2 26-25.5 47.8-42.1 55.4zm0-80v-82.7h50.9c2.9 13.2 4.5 27.2 4.5 41.3 0 13.3-2 27.5-5.5 41.4h-49.9zm97.6-107.1H338c-5.7-18-13.6-34.5-23.4-48 20.9 10.8 38.8 27.2 51.2 48zM197.3 61.9c-9.8 13.4-17.7 29.9-23.3 47.8h-27.6c12.2-20.3 29.6-36.8 50.9-47.8zm-51.1 179.5h29.6c6.4 18.4 15.1 35.9 25.8 50.1-22.8-10.7-42.2-28-55.4-50.1zm164.5 49.8c10.6-14.1 19.2-31.5 25.5-49.7h29.4c-12.9 21.6-31.9 38.8-54.9 49.7zM500.6 443.6c0-25-20.3-45.3-45.3-45.3-20.7 0-38.2 14-43.6 33.1h-112c-4.3-15.1-16.2-27.1-31.3-31.3v-34.2c0-6.8-5.5-12.3-12.3-12.3-6.8 0-12.3 5.5-12.3 12.3V400c-15.2 4.3-27.1 16.2-31.4 31.3H100.3c-4.5-16.3-18-29.1-34.8-32.2-16.4-3.1-33.2 2.9-43.7 15.6-8.6 10.4-12.1 24.2-9.6 37.7 3.4 18 17.8 32.3 35.7 35.7 2.9.6 5.8.8 8.8.8 13.5 0 26.3-6 34.9-16.4 4.1-4.9 7-10.6 8.7-16.7h112c5.4 19.1 22.9 33.1 43.6 33.1 20.7 0 38.2-14 43.6-33.1h112c5.4 19.1 22.9 33.1 43.6 33.1 25.1 0 45.5-20.3 45.5-45.3zM72.8 456.9c-4.9 5.9-12.5 8.6-20.2 7.2-8-1.5-14.7-8.2-16.2-16.2-1.2-6.4.3-12.6 4.4-17.5 4-4.8 9.8-7.6 16.1-7.6 1.4 0 2.8.1 4.2.4 8 1.5 14.7 8.2 16.2 16.2 1.1 6.4-.5 12.6-4.5 17.5zm183.2 7.5c-11.5 0-20.8-9.3-20.8-20.8s9.3-20.8 20.8-20.8 20.8 9.3 20.8 20.8-9.3 20.8-20.8 20.8zM434.5 445c.1-.5.1-.9.1-1.4s-.1-.9-.1-1.4c.7-10.8 9.7-19.4 20.7-19.4 11.5 0 20.8 9.3 20.8 20.8s-9.3 20.8-20.8 20.8c-11 0-19.9-8.6-20.7-19.4z"/></svg>