<svg height="512" viewBox="0 0 56 56" width="512" xmlns="http://www.w3.org/2000/svg"><g fill="#000" fill-rule="nonzero"><path d="M37.381 3.062c1.2207502-.58548714 2.6762453-.35630038 3.658.576.9390562.98619475 1.1703464 2.45036916.581 3.678L10.2 38.735c-.32511253-2.1939403-2.04185317-3.9200067-4.234-4.257zM47.3 12.94L15.859 44.376c-.3320279-2.1870828-2.0488389-3.9034885-4.236-4.235L43.06 8.705c1.2155936-.6078953 2.6837538-.37013899 3.6453629.59033615C47.6669721 10.2558113 47.9064606 11.7236899 47.3 12.94zM1.171 55.985c-.32329334.055683-.65333752-.0507433-.88320188-.2847979C.05793375 55.4661475-.04251356 55.1342348.019 54.812L.7 50.379c1.18520301.3028582 2.2657494.9222885 3.126 1.792.87107224.8608776 1.49155769 1.9424926 1.795 3.129zM17.233 53.5l-9.624 1.49c-.37308438-1.6061263-1.19340297-3.0737546-2.366-4.233-1.15921198-1.1726409-2.62685381-1.9929671-4.233-2.366l1.49-9.624c.15163785-.7975088.58019655-1.5157873 1.21-2.028 1.2198302-.5849799 2.67419993-.3557824 3.655.576.95428456 1.0206965 1.16809197 2.5293375.535 3.775-.20594307.3870332-.13577323.8630791.17308318 1.1742301.30885641.3111511.78436986.3848426 1.17291682.1817699 1.2462801-.6355962 2.7570717-.4233659 3.78.531.9537783 1.0206046 1.1671864 2.5288487.534 3.774-.2061784.3874047-.1356804.8639667.1738309 1.1750852.3095112.3111185.7857017.3840839 1.1741691.1799148 1.2456658-.6352592 2.7557086-.4230218 3.778.531.9341031.9830018 1.1626345 2.441382.574 3.663-.5135628.6258809-1.2312601 1.0507633-2.027 1.2zM20.1 47.222c-.7608792-.7733981-1.7555878-1.2742673-2.83-1.425L48.684 14.38c1.2171322-.6251157 2.698435-.3947368 3.6682285.5704994.9697936.9652362 1.2071472 2.4454374.5877715 3.6655006L21.521 50.034c-.1506789-1.0683668-.6502557-2.0569734-1.421-2.812zM55.194 16.346c-.1537051-1.0639379-.6530187-2.0478072-1.421-2.8-1.1014064-1.1115871-2.6580246-1.6462355-4.21-1.446.1921248-1.5521143-.3421076-3.10611899-1.4479943-4.21200568C47.009119 6.78210764 45.4551143 6.24787522 43.903 6.44c.1997386-1.55289907-.3356228-3.11017969-1.448-4.212-.751672-.76834259-1.7359046-1.26713761-2.8-1.419 1.1799454-1.09380356 3.012669-1.06203753 4.154.072l11.312 11.311c1.1430927 1.1373382 1.1754253 2.9772003.073 4.154z"/></g></svg>